:FULLY-SPECIFIED
:DEGREES
2796
root 4.79434 16.5192 -1.96881 87.147 -94.3562 -70.8392
lowerback -7.66596 -1.31469 -1.30969
upperback -4.38994 -1.80067 -0.499175
thorax -0.213505 -0.94435 0.0895205
lowerneck -14.0719 -0.359876 1.33456
upperneck 20.1605 -1.18763 0.695113
head 8.60701 -0.470027 -0.137474
rclavicle -3.18055e-015 -2.3059e-014
rhumerus -39.372 -8.28717 -79.7041
rradius 30.7326
rwrist 20.1359
rhand -23.6894 -4.60707
rfingers 7.12502
rthumb 2.77729 -34.5687
lclavicle -3.18055e-015 -2.3059e-014
lhumerus -34.6584 -8.44478 88.2938
lradius 39.256
lwrist -4.68189
lhand -34.9306 -3.37882
lfingers 7.12502
lthumb -8.07783 26.4468
rfemur -36.4963 10.3218 16.5425
rtibia 26.8101
rfoot -6.39198 -17.9134
rtoes -3.48379
lfemur -14.2615 0.187408 -29.616
ltibia 37.9925
lfoot -7.89214 5.68993
ltoes -26.0797
2797
root 4.80013 16.514 -1.99491 87.729 -94.1207 -71.4686
lowerback -7.62212 -1.19656 -0.969521
upperback -4.36864 -1.66359 -0.560334
thorax -0.227816 -0.881533 -0.152893
lowerneck -14.0793 -0.425166 1.36473
upperneck 20.1772 -1.3052 0.780037
head 8.61434 -0.51419 -0.127472
rclavicle -1.59028e-015 -1.98785e-014
rhumerus -39.1804 -8.15726 -79.9979
rradius 30.9949
rwrist 19.9611
rhand -23.645 -4.6621
rfingers 7.12502
rthumb 2.8202 -34.6232
lclavicle -1.59028e-015 -1.98785e-014
lhumerus -35.1976 -8.33903 88.207
lradius 39.2229
lwrist -4.97134
lhand -34.7447 -3.21189
lfingers 7.12502
lthumb -7.89835 26.6206
rfemur -36.0004 10.327 17.0264
rtibia 27.0299
rfoot -6.9134 -17.9564
rtoes -4.1435
lfemur -15.623 0.935882 -29.0872
ltibia 40.9618
lfoot -6.47035 5.00588
ltoes -25.9612
2798
root 4.80805 16.5098 -2.01692 89.5429 -93.8764 -73.3254
lowerback -7.55703 -1.11537 -0.686044
upperback -4.35093 -1.57194 -0.535923
thorax -0.252123 -0.839223 -0.27861
lowerneck -14.1117 -0.467071 1.35698
upperneck 20.2036 -1.35697 0.757728
head 8.62889 -0.540858 -0.139814
rclavicle -8.74653e-015 2.66371e-014
rhumerus -38.8835 -7.85969 -80.186
rradius 31.1984
rwrist 19.6363
rhand -23.6495 -4.73908
rfingers 7.12502
rthumb 2.81589 -34.7002
lclavicle -8.74653e-015 2.66371e-014
lhumerus -35.687 -8.08255 88.249
lradius 39.156
lwrist -5.0383
lhand -34.7556 -3.30832
lfingers 7.12502
lthumb -7.90885 26.5237
rfemur -35.47 10.1401 17.5427
rtibia 27.1844
rfoot -7.43804 -17.9463
rtoes -3.94713
lfemur -17.0835 1.57816 -28.5831
ltibia 44.0155
lfoot -5.06385 4.3712
ltoes -24.689
2799
root 4.82195 16.5078 -2.04081 91.0205 -93.5974 -74.8433
lowerback -7.4177 -1.01435 -0.348343
upperback -4.34013 -1.45725 -0.561307
thorax -0.326378 -0.78691 -0.482721
lowerneck -14.0845 -0.513817 1.42357
upperneck 20.1548 -1.44287 0.794101
head 8.60713 -0.572454 -0.148142
rclavicle 2.38542e-015 -5.56597e-015
rhumerus -38.6137 -7.59086 -80.468
rradius 31.4786
rwrist 19.3381
rhand -23.6046 -4.77098
rfingers 7.12502
rthumb 2.85925 -34.7316
lclavicle 2.38542e-015 -5.56597e-015
lhumerus -36.1751 -8.02033 88.2015
lradius 39.1119
lwrist -4.98245
lhand -34.8073 -3.30523
lfingers 7.12502
lthumb -7.95881 26.5249
rfemur -34.9142 10.0723 18.0553
rtibia 27.2574
rfoot -8.03481 -18.0129
rtoes -4.03083
lfemur -18.6535 2.14382 -28.0481
ltibia 47.1366
lfoot -3.67025 3.72922
ltoes -22.4751
2800
root 4.83888 16.5003 -2.06054 93.8393 -93.2627 -77.7572
lowerback -7.22725 -0.908082 0.0413041
upperback -4.30479 -1.33594 -0.542391
thorax -0.402298 -0.731039 -0.669781
lowerneck -14.1287 -0.595152 1.41988
upperneck 20.1649 -1.56251 0.828789
head 8.61868 -0.624665 -0.149744
rclavicle 9.93923e-015 1.33186e-014
rhumerus -38.3167 -7.24039 -80.6911
rradius 31.8206
rwrist 18.7536
rhand -23.6269 -4.9859
rfingers 7.12502
rthumb 2.83772 -34.9468
lclavicle 9.93923e-015 1.33186e-014
lhumerus -36.5976 -7.91758 88.2581
lradius 39.0071
lwrist -4.90674
lhand -34.817 -3.19064
lfingers 7.12502
lthumb -7.96816 26.6392
rfemur -34.3178 9.87772 18.6532
rtibia 27.3341
rfoot -8.41998 -18.0386
rtoes -4.41185
lfemur -20.2114 2.55472 -27.4854
ltibia 50.2187
lfoot -2.4284 3.29561
ltoes -20.1312
2801
root 4.85716 16.4917 -2.07625 97.5772 -92.8729 -81.6161
lowerback -7.03691 -0.830502 0.502765
upperback -4.23602 -1.25398 -0.487561
thorax -0.443907 -0.6951 -0.863818
lowerneck -14.1974 -0.635911 1.41677
upperneck 20.1927 -1.6318 0.884187
head 8.64114 -0.65071 -0.138931
rclavicle 4.37326e-015 4.17448e-015
rhumerus -37.9447 -6.76296 -80.9107
rradius 32.157
rwrist 18.1332
rhand -23.6841 -4.99426
rfingers 7.12502
rthumb 2.78243 -34.9559
lclavicle 4.37326e-015 4.17448e-015
lhumerus -36.9203 -7.70515 88.259
lradius 38.8095
lwrist -4.97547
lhand -34.8939 -3.05809
lfingers 7.12502
lthumb -8.04235 26.7689
rfemur -33.6749 9.67962 19.2892
rtibia 27.4066
rfoot -8.98103 -18.0132
rtoes -4.65353
lfemur -21.7887 2.92015 -26.8977
ltibia 53.2158
lfoot -1.70145 3.2959
ltoes -19.6639
2802
root 4.87626 16.4855 -2.09366 99.9465 -92.5233 -84.0384
lowerback -6.93302 -0.702891 0.86722
upperback -4.1826 -1.10057 -0.433835
thorax -0.449165 -0.622227 -1.00194
lowerneck -14.2221 -0.710719 1.38403
upperneck 20.2116 -1.74622 0.962953
head 8.65298 -0.69834 -0.120305
rclavicle -1.59028e-015 0
rhumerus -37.5405 -6.34046 -81.0655
rradius 32.441
rwrist 17.6504
rhand -23.7679 -5.08254
rfingers 7.12502
rthumb 2.70154 -35.0452
lclavicle -1.59028e-015 0
lhumerus -37.225 -7.41701 88.2323
lradius 38.544
lwrist -5.28613
lhand -34.899 -3.15316
lfingers 7.12502
lthumb -8.04728 26.6736
rfemur -33.2047 9.48952 19.9194
rtibia 27.543
rfoot -9.51171 -17.9881
rtoes -4.85446
lfemur -23.3963 3.20306 -26.3672
ltibia 56.0149
lfoot -1.62219 4.14992
ltoes -20.0678
2803
root 4.89845 16.469 -2.10811 105.803 -92.3296 -90.003
lowerback -6.77822 -0.626521 1.11054
upperback -4.11248 -1.0065 -0.435691
thorax -0.464577 -0.57709 -1.13266
lowerneck -14.2367 -0.76535 1.53379
upperneck 20.2184 -1.85262 0.939987
head 8.65644 -0.739075 -0.165336
rclavicle 7.95139e-015 -7.55382e-015
rhumerus -37.078 -5.97444 -81.2278
rradius 32.6262
rwrist 17.3
rhand -23.9689 -5.27635
rfingers 7.12502
rthumb 2.50738 -35.2414
lclavicle 7.95139e-015 -7.55382e-015
lhumerus -37.4746 -7.20761 88.2312
lradius 38.2536
lwrist -5.13716
lhand -34.933 -3.15544
lfingers 7.12502
lthumb -8.08013 26.6701
rfemur -32.614 9.15236 20.4238
rtibia 27.6966
rfoot -10.0009 -17.9565
rtoes -4.80511
lfemur -24.9047 3.30316 -25.9981
ltibia 58.5835
lfoot -1.98562 5.20977
ltoes -19.7477
2804
root 4.92112 16.4602 -2.12619 109.199 -92.1484 -93.4369
lowerback -6.67992 -0.52163 1.22855
upperback -4.0675 -0.869304 -0.395812
thorax -0.469932 -0.508392 -1.14849
lowerneck -14.1967 -0.834008 1.56516
upperneck 20.1937 -1.96123 0.974019
head 8.64061 -0.784573 -0.171213
rclavicle -7.95139e-016 -4.17448e-015
rhumerus -36.6024 -5.59469 -81.2739
rradius 32.7376
rwrist 17.1811
rhand -24.1294 -5.31394
rfingers 7.12502
rthumb 2.3524 -35.2807
lclavicle -7.95139e-016 -4.17448e-015
lhumerus -37.676 -6.81088 88.1637
lradius 37.7792
lwrist -5.60947
lhand -34.9885 -3.16179
lfingers 7.12502
lthumb -8.13367 26.6617
rfemur -32.1849 9.10696 20.8082
rtibia 27.8897
rfoot -10.6189 -18.0128
rtoes -4.74158
lfemur -26.4581 3.45711 -25.6632
ltibia 60.8501
lfoot -2.88086 5.56709
ltoes -18.8229
2805
root 4.9438 16.4524 -2.14252 114.491 -92.076 -98.7633
lowerback -6.57725 -0.441477 1.28093
upperback -4.0445 -0.762012 -0.385907
thorax -0.500505 -0.454562 -1.16014
lowerneck -14.1975 -0.904131 1.59003
upperneck 20.2556 -2.0831 1.04097
head 8.66226 -0.833002 -0.167221
rclavicle 7.95139e-016 1.78906e-015
rhumerus -36.1531 -5.11943 -81.3207
rradius 32.8298
rwrist 16.9388
rhand -24.3414 -5.325
rfingers 7.12502
rthumb 2.14763 -35.2939
lclavicle 7.95139e-016 1.78906e-015
lhumerus -37.9294 -6.42722 88.1201
lradius 37.3797
lwrist -5.6837
lhand -34.9642 -3.28799
lfingers 7.12502
lthumb -8.11027 26.5364
rfemur -31.7222 8.94637 21.1282
rtibia 28.0785
rfoot -11.2205 -18.0868
rtoes -4.73762
lfemur -27.9689 3.44302 -25.4256
ltibia 62.7974
lfoot -3.71714 5.51807
ltoes -17.2249
